<svg width="875" height="876" viewBox="0 0 875 876" fill="none" xmlns="http://www.w3.org/2000/svg">
<path d="M874.674 595.726C874.693 649.388 874.722 702.55 874.729 755.711C874.738 822.761 821.745 875.495 754.758 875.47C543.611 875.392 332.464 875.447 121.317 875.416C62.9011 875.407 16.5192 838.986 3.19958 782.119C0.90789 772.335 0.226142 761.979 0.214538 751.885C0.0304409 591.733 0.0689225 431.582 0.0759805 271.43C0.0782465 219.935 -0.183037 168.438 0.25061 116.946C0.795349 52.2645 54.352 0.00379184 118.988 0.0260468C331.135 0.0990828 543.282 0.0745087 755.428 7.71876e-06C821.516 -0.0232013 874.658 52.2956 874.704 118.275C874.816 277.259 874.699 436.243 874.674 595.726ZM659.348 559.588C661.871 560.302 664.39 561.62 666.917 561.635C689.067 561.77 711.219 561.745 733.369 561.604C741.375 561.552 746.616 556.159 746.667 548.479C746.717 540.922 741.348 535.55 733.263 535.51C711.279 535.398 689.294 535.454 667.309 535.408C661.218 535.395 656.636 537.831 654.233 543.544C651.929 549.019 653.596 554.457 659.348 559.588Z" fill="#010101"/>
<path d="M365.495 339.705C375.206 340.058 384.987 341.726 394.2 345.21C403.413 348.693 408.591 351.435 415.386 355.687C420.242 358.726 424.466 362.205 428.487 366.226C428.987 366.726 429.035 366.677 429.929 367.577C442.987 380.726 450.154 396.937 452.458 415.153C455.062 435.742 453.855 455.997 444.435 475.506C442.846 478.798 440.916 481.728 438.771 484.735C431.987 494.226 423.845 503.677 412.118 510.694C404.208 515.427 395.688 517.772 388.487 520.226C378.721 522.998 367.723 524.475 357.594 524.475C338.628 524.566 319.662 524.609 300.696 524.561C286.195 524.523 279.57 517.954 279.562 503.536C279.537 455.622 279.565 407.707 279.616 359.793C279.631 345.11 285.832 339.063 301.116 339.385C315.487 339.385 345.734 339.428 351.518 339.403C355.888 339.384 360.987 339.542 365.495 339.705ZM324.485 377.726C324.485 414.893 324.487 450.06 324.487 487.226C338.323 486.692 352.345 486.504 365.9 485.419C383.365 484.021 396.186 474.842 403.194 458.935C410.686 441.93 410.593 424.17 404.084 406.857C399.306 394.149 392.139 380.272 365.987 379.226C328.487 377.726 366.225 379.246 324.485 377.726Z" fill="#DBDAD8"/>
<path d="M577.288 484.95C569.667 474.198 562.198 463.778 554.905 453.236C553.207 450.782 551.346 449.817 548.336 449.896C540.199 450.11 532.052 449.97 523.141 449.97C523.141 452.259 523.141 454.008 523.14 455.757C523.137 471.921 523.179 488.084 523.115 504.248C523.06 518.206 517.13 524.381 503.256 524.924C500.107 525.048 496.899 525 493.79 524.542C485.286 523.288 480.135 517.735 479.285 509.203C479.087 507.218 479.044 505.211 479.043 503.214C479.023 455.223 478.961 407.233 479.112 359.243C479.125 355.037 479.478 350.136 481.628 346.828C483.843 343.421 488.155 340.212 492.08 339.358C497.942 338.082 504.338 338.349 510.379 339.057C517.207 339.857 522.094 345.259 522.629 352.307C523.259 360.595 523.124 368.946 523.181 377.271C523.257 388.423 523.2 399.576 523.2 411.542C532.526 411.542 541.603 411.661 550.67 411.399C551.856 411.364 553.217 409.539 554.107 408.27C566.902 390.01 579.57 371.66 592.422 353.441C595.09 349.658 597.953 345.797 601.477 342.878C608.664 336.926 617.017 336.175 625.379 340.176C632.69 343.674 636.507 350.096 635.597 358.027C635.077 362.553 632.827 367.279 630.174 371.092C618.959 387.212 607.304 403.025 595.803 418.944C588.877 428.531 588.849 428.542 595.697 438.043C608.821 456.252 622.009 474.416 635.098 492.651C642.572 503.064 642.497 511.788 635.079 519.079C627.404 526.623 613.308 527.605 604.735 520.816C601.655 518.376 599 515.248 596.651 512.065C590.128 503.226 583.867 494.194 577.288 484.95Z" fill="#D9D8D7"/>
<path d="M149.976 511.585C140.381 514.819 132.891 512.021 129.484 504.225C125.867 495.945 128.676 488.355 137.751 483.377C159.777 471.296 181.92 459.426 204.003 447.448C206.871 445.892 209.668 444.204 213.322 442.104C201.43 435.671 190.333 429.693 179.259 423.672C164.783 415.801 150.323 407.9 135.86 400.003C130.292 396.962 127.932 392.227 128.347 385.945C128.738 380.04 131.886 375.945 136.879 373.311C142.21 370.499 147.536 371.475 152.626 374.266C165.896 381.542 179.178 388.796 192.413 396.136C208.1 404.835 223.718 413.659 239.414 422.342C247.456 426.79 252.422 433.112 252.386 442.635C252.35 451.914 247.723 458.145 239.687 462.511C209.855 478.721 180.12 495.108 149.976 511.585Z" fill="#81B861"/>
<path d="M653.487 548.479C653.487 556.232 653.487 540.726 653.487 548.479C653.487 540.726 659.487 535.509 667.309 535.408C689.294 535.454 711.279 535.398 733.263 535.509C741.348 535.55 746.717 540.922 746.667 548.479C746.617 556.159 741.375 561.552 733.369 561.604C711.219 561.745 689.067 561.635 666.917 561.635C659.487 561.635 653.487 556.232 653.487 548.479Z" fill="#7DB960"/>
</svg>
