<svg width="713" height="713" viewBox="0 0 713 713" fill="none" xmlns="http://www.w3.org/2000/svg">
<circle cx="356.5" cy="356.5" r="356.5" fill="black"/>
<path d="M285.541 247.024C295.252 247.376 305.033 249.044 314.246 252.528C323.459 256.011 328.637 258.753 335.432 263.005C340.289 266.044 344.512 269.523 348.533 273.544C349.033 274.044 349.081 273.995 349.975 274.895C363.033 288.044 370.201 304.255 372.505 322.471C375.109 343.06 373.902 363.316 364.482 382.824C362.892 386.116 360.963 389.047 358.818 392.053C352.033 401.544 343.891 410.995 332.164 418.012C324.254 422.745 315.735 425.09 308.533 427.544C298.767 430.316 287.769 431.793 277.641 431.793C258.675 431.884 239.708 431.928 220.742 431.879C206.242 431.841 199.616 425.272 199.609 410.854C199.583 362.94 199.611 315.025 199.662 267.111C199.678 252.429 205.879 246.381 221.162 246.703C235.533 246.703 265.78 246.746 271.565 246.721C275.934 246.702 281.033 246.86 285.541 247.024ZM244.531 285.044C244.531 322.211 244.533 357.378 244.533 394.544C258.37 394.01 272.392 393.822 285.946 392.737C303.412 391.339 316.233 382.16 323.24 366.253C330.732 349.248 330.639 331.489 324.13 314.175C319.353 301.467 312.185 287.591 286.033 286.544C248.533 285.044 286.271 286.564 244.531 285.044Z" fill="#DBDAD8"/>
<path d="M497.334 392.268C489.714 381.516 482.245 371.096 474.951 360.554C473.253 358.1 471.393 357.136 468.382 357.215C460.245 357.428 452.099 357.288 443.187 357.288C443.187 359.578 443.187 361.327 443.187 363.076C443.183 379.239 443.226 395.403 443.162 411.566C443.106 425.525 437.176 431.699 423.302 432.242C420.153 432.366 416.945 432.318 413.836 431.86C405.332 430.606 400.182 425.053 399.332 416.522C399.134 414.536 399.09 412.529 399.09 410.532C399.07 362.541 399.007 314.551 399.158 266.561C399.172 262.355 399.525 257.454 401.675 254.146C403.889 250.74 408.201 247.53 412.126 246.676C417.988 245.4 424.385 245.667 430.425 246.375C437.253 247.175 442.141 252.577 442.676 259.625C443.305 267.913 443.17 276.264 443.227 284.589C443.304 295.741 443.246 306.894 443.246 318.861C452.572 318.861 461.65 318.979 470.716 318.717C471.902 318.682 473.264 316.857 474.153 315.588C486.948 297.328 499.616 278.978 512.468 260.759C515.137 256.976 518 253.115 521.524 250.197C528.71 244.244 537.063 243.493 545.425 247.494C552.736 250.992 556.554 257.414 555.643 265.346C555.124 269.872 552.873 274.597 550.22 278.411C539.005 294.53 527.35 310.343 515.849 326.263C508.924 335.849 508.896 335.86 515.743 345.361C528.867 363.571 542.055 381.734 555.144 399.969C562.619 410.382 562.544 419.106 555.125 426.397C547.451 433.941 533.354 434.923 524.782 428.134C521.701 425.695 519.047 422.566 516.698 419.383C510.175 410.544 503.914 401.512 497.334 392.268Z" fill="#D9D8D7"/>
<path d="M70.0221 418.903C60.427 422.138 52.9371 419.34 49.5307 411.543C45.9133 403.264 48.7226 395.673 57.7973 390.696C79.8239 378.614 101.966 366.744 124.049 354.766C126.918 353.21 129.714 351.522 133.369 349.422C121.477 342.989 110.379 337.012 99.3053 330.99C84.8289 323.119 70.369 315.218 55.9066 307.321C50.3384 304.28 47.9789 299.545 48.3939 293.263C48.7841 287.358 51.932 283.263 56.9255 280.629C62.2568 277.817 67.582 278.794 72.6725 281.585C85.9426 288.86 99.2247 296.115 112.459 303.454C128.146 312.154 143.764 320.978 159.46 329.66C167.502 334.108 172.469 340.43 172.432 349.953C172.397 359.232 167.77 365.463 159.733 369.829C129.902 386.039 100.167 402.426 70.0221 418.903Z" fill="#81B861"/>
<path d="M573.534 455.797C573.533 463.55 573.533 448.044 573.534 455.797C573.534 448.044 579.534 442.828 587.356 442.726C609.34 442.772 631.325 442.716 653.309 442.828C661.394 442.869 666.763 448.24 666.713 455.797C666.663 463.477 661.422 468.87 653.415 468.922C631.265 469.063 609.114 468.953 586.963 468.953C579.533 468.953 573.533 463.55 573.534 455.797Z" fill="#7DB960"/>
</svg>
